<?xml version="1.0" encoding="UTF-8" standalone="no"?>
<!-- Created with Inkscape (http://www.inkscape.org/) -->

<svg
   xmlns:dc="http://purl.org/dc/elements/1.1/"
   xmlns:cc="http://creativecommons.org/ns#"
   xmlns:rdf="http://www.w3.org/1999/02/22-rdf-syntax-ns#"
   xmlns:svg="http://www.w3.org/2000/svg"
   xmlns="http://www.w3.org/2000/svg"
   xmlns:sodipodi="http://sodipodi.sourceforge.net/DTD/sodipodi-0.dtd"
   xmlns:inkscape="http://www.inkscape.org/namespaces/inkscape"
   width="744.09448819"
   height="1052.3622047"
   id="svg6617"
   version="1.1"
   inkscape:version="0.48.2 r9819"
   sodipodi:docname="dataplex.svg">
  <defs
     id="defs6619" />
  <sodipodi:namedview
     id="base"
     pagecolor="#ffffff"
     bordercolor="#666666"
     borderopacity="1.0"
     inkscape:pageopacity="0.0"
     inkscape:pageshadow="2"
     inkscape:zoom="0.61485144"
     inkscape:cx="427.06722"
     inkscape:cy="737.48691"
     inkscape:document-units="px"
     inkscape:current-layer="layer1"
     showgrid="false"
     inkscape:window-width="1364"
     inkscape:window-height="766"
     inkscape:window-x="0"
     inkscape:window-y="0"
     inkscape:window-maximized="0" />
  <metadata
     id="metadata6622">
    <rdf:RDF>
      <cc:Work
         rdf:about="">
        <dc:format>image/svg+xml</dc:format>
        <dc:type
           rdf:resource="http://purl.org/dc/dcmitype/StillImage" />
        <dc:title></dc:title>
      </cc:Work>
    </rdf:RDF>
  </metadata>
  <g
     inkscape:label="Layer 1"
     inkscape:groupmode="layer"
     id="layer1">
    <path
       style="color:#000000;fill:#ff00ff;fill-opacity:1;fill-rule:nonzero;stroke:#ffffff;stroke-width:1.21704710000000005;stroke-linecap:round;stroke-linejoin:round;stroke-miterlimit:4;stroke-opacity:0;stroke-dasharray:none;stroke-dashoffset:0;marker:none;visibility:visible;display:inline;overflow:visible;enable-background:accumulate"
       d="m 128.26912,251.79229 c -1.79425,-0.0989 -5.88048,3.20411 -7.4354,4.62098 -12.77654,12.30644 -23.471848,26.62486 -36.549428,38.64125 -4.54666,3.80865 -7.70805,9.19228 -12.15145,12.87407 -7.64192,6.00103 1.49658,6.44534 2.07278,9.69834 5.98842,5.98651 12.35499,11.60336 18.4839,17.45703 2.91063,2.96266 9.144558,9.65787 11.638008,12.96915 2.91692,4.13292 6.89338,8.44485 11.88523,13.61571 5.04941,4.34104 8.46992,10.39345 13.82488,14.33834 2.92914,-2.89673 0.93995,-8.33397 0.98885,-12.2085 -0.11435,-2.53439 -0.28972,-5.05859 -0.51344,-7.58753 59.22381,0.83488 264.38038,1.42469 340.42833,1.35016 0.64189,-0.61199 1.28426,-1.19063 1.90164,-1.69246 5.88592,-5.26317 10.87699,-11.43217 16.31604,-17.11472 3.54912,0.5573 7.21394,4.61061 9.43211,6.99802 2.52579,2.92269 4.17123,4.28542 6.78884,5.91409 2.54176,2.43028 4.75628,4.27041 6.57967,5.79999 33.43439,-0.1532 34.9625,-0.47896 62.65012,-0.98886 -0.21266,2.44016 1.7154,4.876 1.60507,7.32131 0.0489,3.87453 -1.94029,9.31177 0.98884,12.2085 5.35496,-3.94489 8.75646,-9.9973 13.80587,-14.33834 4.99189,-5.17086 8.98732,-9.48279 11.90423,-13.61571 2.49347,-3.31128 8.70842,-10.00649 11.61901,-12.96915 6.12891,-5.85367 12.4955,-11.47052 18.48391,-17.45703 0.57619,-3.253 9.71469,-3.69731 2.0728,-9.69834 -4.44341,-3.68179 -7.6048,-9.06542 -12.15146,-12.87407 -13.07758,-12.01639 -23.77287,-26.33481 -36.54947,-38.64125 -1.55489,-1.41687 -5.64112,-4.71985 -7.43538,-4.62098 0.43422,7.46108 1.15439,15.74729 1.78753,24.16979 -16.03481,0.0912 -7.46977,0.28757 -28.86574,0.47542 -1.84028,2.09611 -3.96435,4.41585 -6.40851,6.40851 -5.41276,4.41291 -8.35143,6.75405 -11.80916,10.21179 -0.47996,0.47995 -2.05939,3.23278 -2.14885,3.23278 -0.0974,0 -2.13318,-2.11417 -2.16786,-2.14886 -1.37412,-1.37411 -1.30719,-2.92357 -2.68131,-4.29769 -2.74637,-2.74638 -7.56791,-7.03546 -11.2767,-10.74424 -0.93599,-0.93599 -1.72326,-1.71852 -2.41508,-2.37705 -13.83696,0.073 -28.70017,0.11151 -42.0832,0.076 -1.72142,1.69368 -3.40343,3.42801 -5.13443,5.09639 -2.44783,2.23687 -4.58984,4.91189 -7.64457,6.35146 -2.77079,1.04724 -4.27503,3.61298 -6.21835,5.62884 -2.1589,0.98101 -3.7995,3.23629 -6.31343,3.30885 -3.82947,-3.92261 -7.72009,-7.78868 -11.44785,-11.80916 -1.42518,-1.58506 -2.2413,-3.65469 -3.76524,-5.19147 -1.13999,-1.26129 -2.3091,-2.49231 -3.49901,-3.70818 -9.91551,-0.13716 -19.98774,-0.82055 -27.63077,-1.06492 -1.11829,1.18811 -3.12435,2.96054 -3.95541,4.4118 -3.02222,4.14779 -7.60007,7.10906 -10.78227,10.36391 -3.75527,2.17824 -6.52171,7.36425 -10.55408,7.91081 -2.74776,-1.97167 -5.14817,-4.33337 -7.30228,-6.94098 -2.73205,-1.46117 -5.97505,-4.93291 -7.35934,-7.51146 -2.60076,-2.70441 -6.25502,-4.77267 -8.53835,-7.73966 -31.58361,0.15882 -189.22117,0.55609 -222.13888,0.68081 0.6317,-8.39605 -0.76386,-17.35513 -0.33096,-24.79355 z"
       id="rect5528"
       inkscape:connector-curvature="0"
       sodipodi:nodetypes="ccccccccccccccccccccccccccccccssssssccccccccccccccccccc" />
    <path
       inkscape:connector-curvature="0"
       style="fill:#ff0b0b;fill-opacity:1;stroke:#ffffff;stroke-width:0.60852355px;stroke-linecap:butt;stroke-linejoin:miter;stroke-opacity:0"
       d="m 246.31421,135.6069 c -0.65198,-0.0892 -2.24004,0.98577 -2.84954,1.45691 -5.02782,4.11364 -9.35428,9.00621 -14.4834,13.00507 -1.77231,1.25556 -3.08981,3.13699 -4.82067,4.34931 -1.82092,0.51438 0.35736,2.39501 0.47136,3.59942 2.00856,2.36239 4.17095,4.60226 6.23472,6.92033 0.97467,1.16755 2.14458,2.18842 2.95667,3.47087 0.60401,2.59593 3.17312,4.90658 4.84208,6.94175 1.71454,1.73398 2.76863,4.03638 4.60642,5.63482 1.15489,-0.9706 0.5959,-3.00081 0.72845,-4.41358 0.0699,-1.95036 0.0353,-3.91263 -0.0428,-5.87049 5.46014,-0.0209 14.36771,-0.21426 15.04046,-0.21426 0.92794,0 1.8157,0.017 2.72099,0.0214 0.45657,7.66599 0.2571,15.4478 0.2571,23.26771 0,6.16073 -0.98555,13.17711 -0.98555,19.30406 0,2.5208 -0.38841,14.45923 0.49278,15.34042 4.38199,4.38199 10.51626,9.50928 14.35486,13.34787 0.72584,0.72584 6.83559,8.56813 7.90587,6.42755 0.0192,-0.0382 0.0486,-0.0815 0.0642,-0.12855 4.24579,0.0757 8.57132,0.12855 13.30503,0.12855 5.26932,0 11.63224,-1.11734 17.82573,0 1.6167,0.29165 9.1833,1.00698 10.86256,1.00698 6.45239,0 32.92899,-0.72994 33.65892,0 2.32699,0.7828 5.65451,5.55583 8.59149,7.88446 0.29806,2.18645 -1.05975,3.9238 -0.92128,7.94873 -0.002,0.0867 -0.0475,0.3315 -0.0642,0.49278 -0.83193,-0.0357 -4.37237,-0.63068 -4.88494,-0.14997 -0.92677,0.86916 -7.25244,0.74023 -8.95571,0.6856 -0.98537,-0.0316 -1.9484,-0.0685 -2.91383,-0.10713 0.67732,0.85049 1.38555,1.70692 2.2068,2.52817 l 19.30406,19.30407 c 0.74229,0.74228 1.74304,2.2144 2.48532,2.95667 1.03356,1.03356 9.47735,-8.54139 13.3693,-11.37676 5.53796,-4.03451 10.01624,-8.96287 14.65481,-13.64782 -1.76263,-0.0932 -3.26216,-0.16827 -4.02793,-0.19283 -3.90353,-0.1252 -7.52568,-0.10902 -11.07681,-0.0642 0.15495,-1.21151 0.63891,-2.54099 0.29995,-3.7494 -0.71723,-2.55705 -0.59303,-9.37016 0.23568,-13.60498 -3.83466,-4.47298 -8.58348,-10.87959 -13.7978,-14.07632 -4.33524,-2.59389 -7.87966,-5.97401 -11.78384,-8.74147 -10.70688,-1.28941 -21.37724,0.24477 -31.51641,-0.0857 -9.36105,-0.38835 -21.20075,-0.70117 -28.70971,-0.4285 -5.42031,0.19682 -12.8655,0.21014 -19.88255,0.14997 -0.13672,-1.53037 -0.12125,-4.29963 0.19283,-4.92779 1.78131,-3.56261 -0.98556,-38.2658 -0.98556,-45.03567 0,-0.38121 0.008,-2.57496 0.0214,-4.15647 5.02854,0.0974 10.14768,0.19282 15.81176,0.19282 5.26933,0 167.50028,0.38243 173.69376,1.49977 1.6167,0.29165 9.20473,1.00698 10.88398,1.00698 6.4524,0 32.929,-0.72994 33.65893,0 1.72991,1.7299 4.27399,7.72344 5.93476,9.38421 0.16604,0.16604 0.84279,1.33012 1.15696,2.4639 0.17053,0.2709 0.34256,0.5586 0.51421,0.81415 0.27868,4.98349 1.2139,70.77271 1.04983,75.8879 -0.002,0.0867 -0.0475,0.3315 -0.0642,0.49278 -0.83193,-0.0357 -4.37237,-0.63067 -4.88493,-0.14998 -0.92678,0.86917 -7.25245,0.76166 -8.95572,0.70703 -0.98535,-0.0316 -1.94839,-0.0685 -2.91382,-0.10712 0.67731,0.85048 1.38554,1.70692 2.20679,2.52817 l 19.30407,19.30403 c 0.74229,0.74228 1.72161,2.2144 2.46389,2.95667 1.03355,1.03355 9.47735,-8.56282 13.3693,-11.39818 5.53796,-4.03452 10.01625,-8.96287 14.65481,-13.64783 -1.76263,-0.0931 -3.26215,-0.16826 -4.02793,-0.19282 -3.90353,-0.1252 -7.50425,-0.0876 -11.05538,-0.0428 0.15495,-1.21151 0.25972,-2.495 0.29995,-3.7494 0.27247,-8.4953 -0.6103,-78.16908 -0.77131,-86.85758 -0.13294,-0.1142 -0.2256,-0.21515 -0.3428,-0.27853 -5.13543,-2.77696 -10.58286,-11.75192 -13.455,-13.30502 -2.60677,-1.40958 -6.21663,-4.07083 -8.20584,-6.19187 -0.36297,-0.38703 -2.24713,-1.59551 -3.55657,-2.52817 -4.04798,0.002 -7.82709,0.10418 -11.20536,-0.4285 -1.13487,-0.17894 -2.36654,-0.2899 -3.62085,-0.32138 -5.43529,-0.13635 -11.73572,0.87062 -16.71163,0.66418 -9.36104,-0.38835 -177.06877,-2.20092 -184.57773,-1.92826 -15.56379,0.57247 -40.5333,0.43533 -57.44085,-0.38566 0.59021,-4.01594 1.30304,-8.04266 1.79971,-11.591 z"
       id="path5433" />
    <path
       style="fill:#ffb900;fill-opacity:1;stroke:#ffffff;stroke-width:0.60852355px;stroke-linecap:butt;stroke-linejoin:miter;stroke-opacity:0"
       d="m 244.45653,181.27964 c -0.65706,-0.0362 -2.14993,1.1736 -2.71934,1.69246 -4.6788,4.50665 -8.59849,9.74773 -13.38753,14.14816 -1.66499,1.39473 -2.82263,3.36778 -4.44982,4.71606 -1.77336,0.65992 0.54965,2.36479 0.76065,3.55605 2.19298,2.19228 4.5254,4.24587 6.76983,6.3895 1.06587,1.08493 2.31967,2.00117 3.23278,3.21376 0.8119,2.5386 3.5536,4.62904 5.38163,6.52262 1.84911,1.58969 3.09736,3.80389 5.05835,5.24851 1.07265,-1.06079 0.34341,-3.04997 0.36132,-4.46884 -0.088,-1.94963 -0.27725,-3.89289 -0.51345,-5.83802 0.84763,-0.072 1.84669,-0.17667 2.81443,-0.26623 4.68925,-0.20228 9.72994,-0.45639 10.24981,-0.45639 13.38549,0 24.22056,0.49442 38.10879,0.49442 5.26932,0 11.62484,-1.11734 17.81833,0 1.6167,0.29166 81.44127,0.51344 83.12052,0.51344 6.45239,0 32.92902,-0.72993 33.65896,0 2.32698,0.7828 5.63939,5.54414 8.57637,7.87277 0.29805,2.18645 0.43204,35.39599 0.57049,39.42092 -0.002,0.0867 -0.0402,0.33315 -0.057,0.49443 -0.83193,-0.0357 -4.37464,-0.63284 -4.8872,-0.15213 -0.92677,0.86916 -7.25344,0.75822 -8.95671,0.70359 -0.98537,-0.0316 -1.94407,-0.0756 -2.9095,-0.11409 0.67731,0.85049 1.38464,1.70792 2.20589,2.52917 l 19.30161,19.30161 c 0.74227,0.74228 1.72985,2.22428 2.47213,2.96655 1.03355,1.03356 9.47655,-8.55543 13.3685,-11.3908 5.53796,-4.03451 10.02304,-8.96878 14.66162,-13.65374 -1.76263,-0.0932 -3.2657,-0.1656 -4.03147,-0.19016 -3.90353,-0.12521 -7.5164,-0.10179 -11.06752,-0.057 0.15495,-1.21151 0.64321,-2.53782 0.30425,-3.74623 -0.71723,-2.55704 -2.08378,-40.85298 -1.25507,-45.08779 -3.83467,-4.47299 -8.59157,-10.87537 -13.80588,-14.0721 -4.33524,-2.59388 -7.86695,-5.96105 -11.77113,-8.72851 -10.70689,-1.2894 -21.38996,0.23539 -31.52913,-0.0951 -9.36104,-0.38834 -93.42988,-0.1966 -100.93884,0.076 -8.90547,0.32339 -23.48418,0.12016 -32.17568,-0.019 l -14.85178,-0.038 c 0.002,-0.0762 -0.002,-0.152 0,-0.2282 -1.4608,0.0759 -2.88686,0.14338 -4.29769,0.20918 l -6.02819,-0.019 c 0.26315,-3.96215 0.63314,-7.94991 0.83672,-11.44784 z"
       id="path5641"
       inkscape:connector-curvature="0" />
    <path
       style="fill:#0075ed;fill-opacity:1;stroke:#ffffff;stroke-width:0.60852355px;stroke-linecap:butt;stroke-linejoin:miter;stroke-opacity:0"
       d="m 490.69938,346.93114 c -0.0464,0.0121 -0.0818,0.0437 -0.11409,0.076 -0.74228,0.74228 -1.72984,2.22427 -2.47213,2.96655 l -19.30161,19.3016 c -0.82125,0.82126 -1.52858,1.6787 -2.2059,2.52918 0.96543,-0.0386 1.92414,-0.0825 2.9095,-0.1141 1.70327,-0.0547 8.02994,-0.16555 8.95671,0.70362 0.51257,0.48068 4.05529,-0.11642 4.88721,-0.15214 0.0168,0.16128 0.054,0.40774 0.057,0.49442 -0.13846,4.02494 1.21084,5.74338 0.91278,7.92982 -2.93698,2.32863 -6.24939,7.10899 -8.57637,7.89179 -0.72994,0.72994 -27.20656,0 -33.65896,0 -1.67925,0 -9.26066,0.71622 -10.87736,1.00787 -6.1935,1.11734 -12.54901,0 -17.81833,0 -13.33794,0 -133.69599,-1.35572 -155.15448,-1.46425 0.0253,-0.28155 0.0509,-0.5344 0.076,-0.81771 -0.0876,0.004 -0.17873,0.0149 -0.26623,0.019 l -6.02819,-0.019 c 0.26316,-3.96215 0.63315,-7.94992 0.83673,-11.44785 -0.65706,-0.0362 -2.14993,1.17359 -2.71934,1.69246 -4.67881,4.50664 -8.59848,9.74774 -13.38752,14.14817 -1.66501,1.39473 -2.82265,3.36777 -4.44983,4.71606 -1.77338,0.65992 0.54965,2.3648 0.76065,3.55605 2.19298,2.19228 4.52541,4.24588 6.76983,6.38951 1.06588,1.08494 2.31967,2.00116 3.23278,3.21376 0.8119,2.5386 3.5536,4.62904 5.38163,6.52261 1.84911,1.58969 3.09736,3.80389 5.05835,5.24852 1.07266,-1.0608 0.3434,-3.04998 0.36131,-4.46885 -0.0768,-1.70119 -0.24248,-3.39941 -0.43738,-5.09638 l 12.39867,-0.74164 c 8.6915,-0.13918 143.51066,1.6353 152.41613,1.95868 7.50898,0.27267 19.33465,-0.03 28.69569,-0.41835 10.13917,-0.33049 20.82224,1.19432 31.52913,-0.0951 3.90418,-2.76745 7.43589,-6.13463 11.77113,-8.7285 5.21431,-3.19674 9.97121,-9.59912 13.80587,-14.07211 -0.8287,-4.23482 -0.94543,-11.05867 -0.22819,-13.61572 0.33895,-1.2084 -0.14931,-2.53471 -0.30426,-3.74623 3.55111,0.0447 7.16399,0.0681 11.06752,-0.057 0.76578,-0.0246 2.26884,-0.097 4.03147,-0.19018 -4.63857,-4.68496 -9.12366,-9.61922 -14.66162,-13.65374 -3.77033,-2.74676 -11.81585,-11.8414 -13.2544,-11.46686 z"
       id="path5656"
       inkscape:connector-curvature="0" />
    <path
       style="fill:#ffffff;fill-opacity:1;stroke:#ffffff;stroke-width:0.57912707px;stroke-linecap:butt;stroke-linejoin:miter;stroke-opacity:0"
       d="m 305.49513,298.25471 c -2.30725,3.08693 -10.74506,7.20886 -8.56022,9.86326 -6.78188,-6.54623 -6.21426,-6.78295 -8.7593,-9.5375 -3.64311,3.94576 -7.15076,6.43431 -8.48783,7.9268 -2.7067,0.13062 -2.27843,-0.0915 -6.96762,-0.34386 -0.3432,9.42807 -0.002,21.64914 0.68771,29.19162 2.75978,0.58177 5.80804,0.93977 8.63261,1.04968 0.36633,-7.86387 -0.45315,-24.96439 0.66962,-25.77116 0.3548,-0.25494 7.69107,-1.53496 7.87251,-0.47054 0.54633,3.20515 1.17657,18.64376 0.88678,25.24632 2.17024,-0.28226 5.13384,-0.43655 8.28875,-0.48864 -0.0789,-8.24338 -1.4694,-23.1496 1.14016,-24.5224 0.69983,-0.36816 6.85212,0.28654 6.84095,0.47054 -0.14661,2.41344 0.30765,-0.16046 0.30765,4.7054 0,6.2408 -0.79272,13.39277 -1.19444,19.36456 3.85177,0.0586 7.2907,0.1763 9.10315,0.27147 -0.84816,-7.17088 -1.77201,-23.35795 -0.63342,-27.70761 -2.6198,-2.77235 -6.38262,-6.50829 -9.82706,-9.24794 z"
       id="path5710"
       inkscape:connector-curvature="0" />
    <path
       style="fill:#ffffff;fill-opacity:1;stroke:#ffffff;stroke-width:0.57912707px;stroke-linecap:butt;stroke-linejoin:miter;stroke-opacity:0"
       d="m 329.84431,304.84963 c -2.82456,0.1099 -5.87284,0.46791 -8.63261,1.04967 -0.69003,7.54249 -1.03091,19.76356 -0.68772,29.19162 4.68921,-0.25239 4.26094,-0.47447 6.96763,-0.34385 1.33708,1.49248 4.84471,3.98104 8.48783,7.9268 2.34866,-2.54201 2.1145,-3.00723 7.38387,-8.19827 -0.002,-0.21603 0.0192,-0.40692 0.0543,-0.54293 1.1555,0.41495 3.07974,0.78304 4.30726,0.43434 0.36054,0.0287 0.71534,0.0543 1.03157,0.0543 0.0661,0 0.16225,0.0772 0.21717,0.14478 -0.0364,-0.1326 -0.15103,-1.00379 -0.25336,-1.88217 0.002,-1.2294 -0.19908,-2.93639 -0.19908,-3.43857 l 0,-16.95756 c 0,-0.67563 -0.0876,-5.51691 -0.23527,-5.66458 -0.0701,-0.0701 -0.35757,-0.13469 -0.72392,-0.18099 3.7e-4,-0.0335 -3.1e-4,-0.0753 0,-0.10859 -3.15491,-0.0521 -6.11851,-0.20636 -8.28875,-0.48863 0.28979,6.60256 -0.34045,22.04117 -0.88679,25.24632 -0.18144,1.06442 -7.5177,-0.21559 -7.8725,-0.47054 -1.12277,-0.80676 -0.3033,-17.90727 -0.66962,-25.77116 z"
       id="path5735"
       inkscape:connector-curvature="0" />
    <path
       style="fill:#ffffff;fill-opacity:1;stroke:#ffffff;stroke-width:0.57912707px;stroke-linecap:butt;stroke-linejoin:miter;stroke-opacity:0"
       d="m 354.16807,297.4483 c 1.88559,0.3322 3.4533,-0.27831 5.41591,-0.47095 2.16588,-0.21257 3.48459,0 3.7676,0 0.29526,0 0.23547,3.85476 0.23547,5.65139 0,3.20419 0.47095,9.8348 0.47095,12.9511 0,3.12524 0,14.55394 0,17.66058 0,0.56296 0.35825,3.17386 0,3.53212 -2.69811,0.18117 -6.1836,0.35676 -9.1835,0.23546 0.0886,-2.36917 0.24246,-4.93424 0.23547,-7.06423 0,-4.15469 -0.23547,-8.08996 -0.23547,-12.24466 0,-3.42699 -0.47095,-7.2376 -0.47095,-10.36088 0,-3.15555 -0.72837,-6.8836 -0.23548,-9.88993 z"
       id="path5756"
       inkscape:connector-curvature="0"
       sodipodi:nodetypes="cssssscccssc" />
    <path
       style="fill:#ffffff;fill-opacity:1;stroke:#ffffff;stroke-width:0.57912707px;stroke-linecap:butt;stroke-linejoin:miter;stroke-opacity:0"
       d="m 381.6404,300.61818 c -2.82457,0.1099 -5.87283,0.46791 -8.63261,1.04966 -0.11929,1.3039 -0.22907,2.98967 -0.32575,4.81399 -0.92011,-3.3e-4 -1.82879,-0.0186 -2.73277,-0.0905 -0.51109,-0.25555 -1.24283,-0.87461 -1.64689,-0.47054 -0.24602,0.24601 0.47054,4.68666 0.47054,5.42932 0,0.28283 0.12381,0.92874 0,1.17635 -0.0306,0.0613 -0.41934,0.28646 -0.23527,0.47054 0.22762,0.22762 1.77678,0.26341 3.87291,0.23527 -0.24595,7.97279 -0.30771,17.30623 -0.0905,23.27367 4.68919,-0.2524 4.26093,-0.47448 6.96762,-0.34386 1.33708,1.49249 4.84471,3.98104 8.48783,7.9268 2.45959,-2.66206 2.07348,-3.0318 8.16207,-8.95837 0.14361,-1.00336 2.22801,-2.16974 1.79167,-2.60607 -0.51298,-0.51299 -5.39045,-0.16404 -7.54674,-0.0543 -1.78454,-0.28747 -5.93547,-0.0904 -7.8725,-0.43435 -0.72902,-0.52383 -0.63152,-10.23876 -0.57914,-19.18358 3.21186,-0.17437 6.13642,-0.32576 7.05811,-0.32576 0.67181,0 4.09049,0.85019 4.70541,0.23528 0.69478,-0.69479 -0.23527,-4.87597 -0.23527,-5.89987 0,-0.24106 0.54157,-1.10531 0.23527,-1.41162 -0.19738,-0.19738 -3.19932,0.30567 -3.52905,0.47054 -1.0489,0.52445 -3.76004,0 -4.95879,0 -1.08299,0 -2.17407,0.0482 -3.27568,0.10859 -0.008,-2.10253 -0.0261,-4.02878 -0.0905,-5.41122 z"
       id="path5758"
       inkscape:connector-curvature="0" />
    <path
       style="fill:#ffffff;fill-opacity:1;stroke:#ffffff;stroke-width:0.57912707px;stroke-linecap:butt;stroke-linejoin:miter;stroke-opacity:0"
       d="m 401.72887,305.45027 c -0.60052,0 -3.38216,-0.38217 -3.76431,0 -0.10199,0.10197 -0.15221,6.2182 0,6.37039 0.33343,0.33345 1.38358,-0.23527 1.64688,-0.23527 0.55771,0 1.35308,-0.22944 2.11743,-0.34385 0.11507,1.48057 0.23528,2.97284 0.23528,4.34345 0,3.12328 0.23527,6.69148 0.23527,7.99919 0,2.03543 -2e-4,4.31688 0.23527,6.3523 0.164,1.41764 0.62435,4.65115 0,5.89986 -0.0876,0.17507 -0.4972,0.91444 -0.23527,1.17636 0.15284,0.15283 6.1495,-0.47055 7.07621,-0.47055 0.32048,0 1.73393,0.61877 2.11743,0.23527 0.35825,-0.35826 0,-2.96609 0,-3.52906 l 0,-11.78161 c 0,-3.11631 -0.23527,-7.40109 -0.23527,-10.60527 0,-1.79663 0.06,-5.64649 -0.23527,-5.64649 -1.58711,-0.87776 -5.50218,-0.15483 -9.19365,0.23528 z"
       id="path5779"
       inkscape:connector-curvature="0"
       sodipodi:nodetypes="cscscsssssssssscc" />
    <path
       style="fill:#ffffff;fill-opacity:1;stroke:#ffffff;stroke-width:0.57912707px;stroke-linecap:butt;stroke-linejoin:miter;stroke-opacity:0"
       d="m 401.02747,294.38715 c 0.5148,2.27904 0.22677,5.04099 -0.12054,6.71456 2.09477,-0.90049 7.50266,0.11071 9.29684,-0.79835 0.13864,-2.01897 -0.67228,-4.04894 -0.16146,-6.08817 -1.73185,-0.39849 -3.57733,-0.64495 -5.59063,-0.27358 -1.06692,0.0899 -2.6131,-0.27796 -3.42421,0.44554 z"
       id="path5807"
       inkscape:connector-curvature="0"
       sodipodi:nodetypes="cccccc" />
    <path
       style="fill:#ffffff;fill-opacity:1;stroke:#ffffff;stroke-width:0.57912707px;stroke-linecap:butt;stroke-linejoin:miter;stroke-opacity:0"
       d="m 432.5312,303.20615 c -1.82155,1.97288 -3.60413,3.58446 -5.10357,4.88638 -0.015,-1.18551 -0.0458,-2.28183 -0.0905,-3.23949 -2.82457,0.1099 -5.87284,0.46791 -8.63261,1.04967 -0.22418,2.45029 -0.40395,5.41475 -0.54293,8.59642 -0.0966,0.29566 -0.18098,0.57142 -0.18098,0.7782 0,4.1547 -0.23527,8.07935 -0.23527,12.23406 0,3.42699 -0.47054,7.24672 -0.47054,10.36999 0,3.15556 -0.72816,6.87504 -0.23528,9.88136 1.88559,-0.33219 3.44861,0.2779 5.41123,0.47055 2.16587,0.21257 3.48131,0 3.76433,0 0.29526,0 0.23526,-3.84986 0.23526,-5.64649 0,-1.54539 0.10375,-3.90105 0.21717,-6.26181 1.72186,1.49797 4.21383,3.54615 6.80475,6.35229 2.34866,-2.542 2.11449,-3.00722 7.38387,-8.19827 -0.002,-0.21603 0.0193,-0.40691 0.0543,-0.54294 1.1555,0.41496 3.07974,0.78305 4.30726,0.43435 0.36054,0.0287 0.71533,0.0543 1.03156,0.0543 0.0661,0 0.16227,0.0773 0.21718,0.14478 -0.0364,-0.1326 -0.15102,-1.00379 -0.25337,-1.88216 0.002,-1.22941 -0.20824,-2.93648 -0.19907,-3.43858 0.12682,-6.94499 0.45179,-17.18212 0,-20.83047 -1.54781,0.50514 -3.38038,0.34522 -4.95878,0.10858 -1.74416,-0.24808 -2.69822,-0.0645 -3.9815,-0.0181 -2.43249,-2.59564 -2.73539,-3.34672 -4.54252,-5.30263 z m 0.85058,11.1663 c 0.73869,0.002 1.30283,0.0803 1.48402,0.28956 0.35342,0.10056 0.67363,0.21716 0.77821,0.21716 0.28108,0 0.54771,-0.007 0.81439,-0.0181 -0.11935,6.77135 -0.2923,14.551 -0.57913,16.23365 -0.18143,1.06443 -7.5177,-0.21558 -7.8725,-0.47054 -0.7385,-0.53064 -0.63106,-8.10946 -0.57914,-15.47355 1.03653,-0.26759 4.07213,-0.78414 5.95415,-0.7782 z"
       id="path5834"
       inkscape:connector-curvature="0" />
    <path
       sodipodi:nodetypes="csssssccssssc"
       inkscape:connector-curvature="0"
       id="path5886"
       d="m 449.77068,299.56758 c 2.12686,-1.31612 2.95338,-2.63305 4.70949,-2.82568 2.1633,-0.23731 3.48457,0 3.76759,0 0.29527,0 0.23547,3.85473 0.23547,5.65138 0,3.20418 0.47095,9.83479 0.47095,12.9511 0,3.12523 0,14.55393 0,17.66057 0,0.56296 0.35826,3.17386 0,3.53212 -2.22716,0.18117 -6.1836,0.35677 -9.1835,0.23547 -0.26192,-0.26193 -0.18723,-4.28432 -0.23548,-4.47402 -0.31753,-1.24871 0,-2.81144 0,-4.23854 0,-4.1547 0.23548,-6.44164 0.23548,-10.59634 0,-3.42699 -0.47095,-7.23759 -0.47095,-10.36088 0,-3.15555 -0.022,-4.52885 0.47095,-7.53518 z"
       style="fill:#ffffff;fill-opacity:1;stroke:#ffffff;stroke-width:0.57912707px;stroke-linecap:butt;stroke-linejoin:miter;stroke-opacity:0" />
    <path
       style="fill:#ffffff;fill-opacity:1;stroke:#ffffff;stroke-width:0.57912707px;stroke-linecap:butt;stroke-linejoin:miter;stroke-opacity:0"
       d="m 477.7393,303.91256 c -1.59014,1.72225 -3.13802,3.15563 -4.50633,4.36156 -0.24437,0.45784 -0.5468,1.03931 -0.61532,1.17635 -0.4016,0.80318 -3.13895,-0.43937 -4.0177,0 -0.22435,0.11215 -2.86569,0.2152 -4.92257,0.25338 -0.11619,1.71394 -0.22275,3.5579 -0.30767,5.5017 -0.0966,0.29564 -0.18097,0.57143 -0.18097,0.7782 0,4.15469 -0.23528,8.07936 -0.23528,12.23406 0,2.31429 -0.2045,4.79343 -0.34386,7.13049 0.1961,0.007 0.43724,0.0181 0.57914,0.0181 1.43151,0 7.03422,-0.51254 7.0762,-0.47055 0.61161,0.61159 1.13112,1.32946 1.6107,2.13553 1.72186,1.49798 4.21383,3.54616 6.80474,6.3523 2.34866,-2.542 2.11449,-3.00722 7.38388,-8.19827 -0.002,-0.21603 0.0193,-0.40691 0.0543,-0.54293 1.1555,0.41495 3.07975,0.78304 4.30726,0.43434 0.36055,0.0287 0.71534,0.0543 1.03158,0.0543 0.0661,0 0.16226,0.0773 0.21718,0.14479 -0.0364,-0.13261 -0.15104,-1.00379 -0.25338,-1.88217 0.002,-1.22941 -0.20824,-2.93648 -0.19907,-3.43857 0.002,-0.0666 -0.002,-0.15003 0,-0.21717 -3.64214,0.0284 -7.49013,0.0667 -9.95375,0.0362 -0.0516,0.91939 -0.11626,1.64732 -0.18098,2.02695 -0.18144,1.06442 -7.5177,-0.2156 -7.8725,-0.47055 -0.38306,-0.27523 -0.52547,-2.46555 -0.57913,-5.51979 2.74663,0.0633 6.16024,-0.15326 8.79549,-0.27147 -0.002,0.0485 0.002,0.0785 0,0.12669 3.1591,-0.10156 7.00829,-0.58348 9.88135,-0.72391 0.12988,-6.16626 0.26136,-12.97623 -0.0905,-15.81741 -1.54782,0.50515 -3.38038,0.34522 -4.95878,0.10858 -1.74416,-0.24809 -2.6982,-0.0646 -3.98149,-0.0181 -2.4325,-2.59566 -2.7354,-3.34674 -4.54254,-5.30264 z m 0.8506,11.16631 c 0.73867,0.002 1.30282,0.0803 1.48401,0.28955 0.35342,0.10058 0.67362,0.21719 0.7782,0.21719 0.2811,0 0.54772,-0.007 0.8144,-0.0181 -0.0262,1.48491 -0.0586,3.01747 -0.0905,4.52443 -2.90144,0.0874 -6.41341,0.19834 -8.97647,0.23527 0.007,-1.46612 0.0255,-2.95939 0.0362,-4.47014 1.03653,-0.26759 4.07212,-0.78415 5.95416,-0.7782 z"
       id="path5889"
       inkscape:connector-curvature="0" />
    <path
       style="fill:#ffffff;fill-opacity:1;stroke:#ffffff;stroke-width:0.57912707px;stroke-linecap:butt;stroke-linejoin:miter;stroke-opacity:0"
       d="m 515.24782,308.94215 c 0.0625,0.98239 0.30048,2.05473 0.20764,3.31765 0.78142,1.63538 -1.00267,2.52994 -2.05541,3.3947 -0.97116,1.01102 -1.09705,1.43813 -2.23136,2.20519 -1.50027,-0.8875 -3.181,-3.57458 -4.39663,-4.80096 -0.15319,-0.79321 0.021,-2.14707 -0.23822,-3.62681 -0.70656,-0.14739 -3.00618,0.0368 -4.62078,-0.0637 -2.15344,0.32907 -3.87796,0.16665 -5.99293,0.41038 0.1122,1.1358 -0.0435,4.07786 0.23997,5.33857 1.10919,0.39198 3.63306,-0.3385 4.57685,0.47319 2.27215,2.21147 4.38039,4.77844 5.90436,6.3939 -0.58943,1.25251 -2.04906,2.11249 -2.98618,3.32394 -1.37182,1.51403 -2.54044,1.75507 -3.85982,3.30855 -0.96384,-0.0846 -2.2931,0.18386 -3.68985,0.26011 0.22908,1.37373 0.43858,4.68866 0.0208,5.81892 1.59989,-0.0741 3.51984,0.359 4.44139,0.53429 1.56607,0.11357 0.81991,0.27352 2.49318,-0.007 1.48191,-0.47133 3.21724,-0.20104 4.7082,-0.4482 0.0628,-1.3292 0.0376,-3.64033 0.0665,-4.8862 1.73041,-1.39055 2.9493,-3.52816 4.78822,-4.78225 1.70806,2.1043 3.97686,4.29486 5.76954,6.31614 -0.32241,1.12499 -0.8892,3.00783 -0.50066,3.65342 0.85584,-0.62611 1.19015,0.28954 2.44643,0.007 0.81506,-0.12073 2.28981,-0.18439 3.07805,-0.11722 0.72083,0.27841 3.79431,0.63259 5.13563,0.34207 -0.48958,-1.37749 -0.46281,-3.56031 -0.46266,-5.43838 -1.0699,-0.50576 -1.35619,-0.74892 -2.2685,-0.45127 -1.32953,-1.31984 -2.8608,-2.62659 -3.90293,-4.2053 -1.71029,-1.30226 -3.89362,-2.80833 -5.15043,-4.87005 0.71098,-1.09697 2.06236,-1.71748 2.98964,-2.67575 1.60737,-1.28552 3.2395,-2.54526 4.79867,-3.88662 0.98273,-0.29869 1.53663,-0.21726 3.00803,-0.21569 0.24018,-1.64948 0.39814,-4.01616 0.26815,-5.00808 -1.32794,-0.22217 -10.59431,0.0838 -12.5849,0.3846 z"
       id="path5903"
       inkscape:connector-curvature="0"
       sodipodi:nodetypes="cccccccccccccccccccccccccccccccccc" />
    <g
       id="g7409"
       transform="matrix(0.50275249,0,0,0.50275249,359.79745,103.72675)"
       style="fill:#ff0b0b;fill-opacity:1">
      <path
         sodipodi:nodetypes="cssssccsssscc"
         inkscape:connector-curvature="0"
         id="path6780"
         d="m -392.49971,44.425427 c -5.44823,4.95447 -10.91289,9.75664 -15.71875,14.5625 -10.65306,10.65307 -23.8257,17.84792 -32.53125,30.90625 -1.66812,2.50216 -4.83189,3.99784 -6.5,6.5 -8.65432,12.981473 -26.86904,22.806533 -37.40626,33.343753 -1.53976,1.53977 -5.75069,5.30993 -8.625,8.625 26.44565,1.77154 26.28874,1.61232 51.91425,1.9375 7.03924,-5.24538 15.50012,-17.28137 20.96876,-22.75 4.35523,-4.35523 16.17111,-11.24846 18.6875,-16.28125 1.14565,-2.291303 27.93679,-31.859023 29.28125,-32.531253 3.00205,-1.50103 6.49133,-4.05383 8.9375,-6.5 5.25757,-5.25758 9.58317,-10.69484 14.125,-15.625 -15.68676,-1.03569 -31.45919,-1.80803 -43.133,-2.1875 z"
         style="fill:#ff0b0b;fill-opacity:1;stroke:none" />
      <path
         id="path7237"
         d="m -314.28125,59.21875 c -3.0095,0.202035 -14.36525,1.506132 -11.1875,1.6875 l -1.3125,0 c -2.80361,-0.49756 -13.63794,4.826725 -17.25,11.96875 -0.45798,0.90554 -1.13245,4.261356 -1.75,7.125 0.44536,-0.0047 0.89437,0 1.34375,0 5.79434,0 11.97843,-0.438316 18.09375,-0.53125 0.91527,-0.948065 2.22026,-1.52408 4.15625,-1.5 2.07841,-1.050908 4.36094,-1.605635 6.6875,-1.5625 0.33237,0.0059 0.66701,0.03117 1,0.0625 6.44638,0.149955 9.85341,5.407723 10.5625,11.03125 -0.533,-0.182071 -1.07538,-0.363307 -1.59375,-0.53125 -2.23492,-0.724073 -6.52799,-0.119692 -8.03125,-1.09375 -0.17783,-0.115221 -15.53796,0.957898 -11.90625,1.09375 l -1.3125,0 c -2.80361,-0.326107 -13.63794,3.162773 -17.25,7.84375 -0.79859,1.034902 -2.34968,7.12838 -2.875,7.46875 -1.20389,0.78008 -1.64618,3.44863 -0.59375,4.8125 1.19361,1.54683 -0.63225,4.00493 0.59375,5.59375 1.04868,1.35902 0.41222,5.79661 2.28125,8.21875 1.31839,1.70852 1.64362,4.75487 3.46875,5.9375 2.07186,1.34249 4.91375,3.5632 7.46875,5.21875 1.16336,0.75382 4.09147,0.81007 5.15625,1.5 0.96719,0.62671 16.4903,4.24147 18.40625,3 1.03694,-0.6719 4.20961,-1.37595 5.75,-1.875 4.1268,-1.33702 8.57452,-4.82315 11.5,-6.71875 4.66176,-3.02066 4.39557,-9.7776 6.90625,-13.03125 1.33442,-1.72932 -2.02833,-6.87321 0,-8.1875 0.16651,-0.10789 1.35298,-1.73779 0.5625,-2.25 -0.35653,-0.23102 -0.50971,-0.52933 -0.59375,-0.875 0.0102,-0.0204 0.021,-0.0422 0.0312,-0.0625 1.33442,-2.63852 -2.02833,-10.494727 0,-12.5 0.16651,-0.164615 1.35298,-2.624753 0.5625,-3.40625 -1.25691,-1.242624 -0.21956,-3.897199 -1.125,-5.6875 -1.42238,-2.812428 -2.60535,-5.711853 -4.03125,-8.53125 -3.01279,-5.957097 -9.50408,-9.829965 -14.96875,-12.53125 -2.23492,-1.104759 -6.52799,-0.201325 -8.03125,-1.6875 -0.0222,-0.02197 -0.28882,-0.02886 -0.71875,0 z M -315.5,97.125 c 0.33237,0.0039 0.66701,0.01071 1,0.03125 6.21052,0.09469 9.62555,3.31212 10.5,6.84375 -0.22234,1.01281 -0.50306,2.01704 -0.84375,3 0.26218,-0.002 0.68926,0.002 0.96875,0 -0.0186,0.12368 -0.0377,0.25259 -0.0625,0.375 1.4779,4.98412 0.217,10.06827 -4.40625,14.21875 -2.63454,5.09303 -12.94256,6.16481 -17.3125,1.40625 -4.23506,-4.13122 -5.45013,-9.50846 -4.5,-14.375 2.81803,-3.32066 -0.4305,-10.537221 7.96875,-10.46875 2.07841,-0.68878 4.36094,-1.059521 6.6875,-1.03125 z"
         style="fill:#ff0b0b;fill-opacity:1;stroke:#ffffff;stroke-width:0.80496222px;stroke-linecap:butt;stroke-linejoin:miter;stroke-opacity:0"
         inkscape:connector-curvature="0" />
    </g>
    <g
       id="g7413"
       transform="matrix(0.50275249,0,0,0.50275249,354.06939,100.24902)"
       style="fill:#ffb900;fill-opacity:1">
      <path
         style="fill:#ffb900;fill-opacity:1;stroke:none"
         d="m -392.49971,155.02125 c -5.44823,4.95447 -10.91289,9.75664 -15.71875,14.5625 -10.65306,10.65307 -23.8257,17.84792 -32.53125,30.90625 -1.66812,2.50216 -4.83189,3.99784 -6.5,6.5 -8.65432,12.98147 -26.86904,22.80653 -37.40626,33.34375 -1.53976,1.53977 -5.75069,5.30993 -8.625,8.625 26.44565,1.77154 26.28874,1.61232 51.91425,1.9375 7.03924,-5.24538 15.50012,-17.28137 20.96876,-22.75 4.35523,-4.35523 16.17111,-11.24846 18.6875,-16.28125 1.14565,-2.2913 27.93679,-31.85902 29.28125,-32.53125 3.00205,-1.50103 6.49133,-4.05383 8.9375,-6.5 5.25757,-5.25758 9.58317,-10.69484 14.125,-15.625 -15.68676,-1.03569 -31.45919,-1.80803 -43.133,-2.1875 z"
         id="path7229"
         inkscape:connector-curvature="0"
         sodipodi:nodetypes="cssssccsssscc" />
      <path
         inkscape:connector-curvature="0"
         id="path7308"
         d="m -322.79321,146.0625 c -1.70389,-0.0486 -12.11562,2.9375 -15.90625,2.9375 -3.08073,0 -6.3333,0.5625 -6.3125,0.5625 0.81888,0 0.5625,11.39129 0.5625,13.25 l 0,6.3125 c 0,0.79029 -1.12132,1.75368 -0.5625,2.3125 0.62029,0.62029 4.692,0.044 8.59375,-0.53125 0.0132,0.75383 0.0312,1.51663 0.0312,2.25 l 0,13.8125 0,7 c -0.45209,2.11804 -0.87259,3.99759 -1.09375,4.21875 -1.20389,1.20389 -1.64618,5.36389 -0.59375,7.46875 1.19361,2.38721 -0.63225,6.17299 0.59375,8.625 1.04868,2.09736 0.41222,8.91819 2.28125,12.65625 1.31839,2.63676 1.64362,7.36237 3.46875,9.1875 2.07186,2.07185 4.91375,5.5075 7.46875,8.0625 1.16336,1.16337 4.09147,1.21647 5.15625,2.28125 0.96719,0.96719 16.4903,6.54095 18.40625,4.625 1.03694,-1.03694 4.20961,-2.10481 5.75,-2.875 4.1268,-2.0634 8.57452,-7.44952 11.5,-10.375 4.66176,-4.66176 4.39557,-15.10365 6.90625,-20.125 1.33442,-2.66884 -2.02833,-10.59667 0,-12.625 0.16651,-0.16651 1.35298,-2.67827 0.5625,-3.46875 -1.25691,-1.25691 -0.21956,-3.93912 -1.125,-5.75 -1.42238,-2.84476 -2.60535,-5.77319 -4.03125,-8.625 -3.01279,-6.02558 -9.50408,-9.92391 -14.96875,-12.65625 -2.23492,-1.11746 -6.52799,-0.21549 -8.03125,-1.71875 -0.17783,-0.17782 -15.53796,1.50909 -11.90625,1.71875 l -1.3125,0 c -0.76202,-0.13679 -2.1077,0.19315 -3.75,0.84375 -0.22283,-10.26232 -0.62277,-21.30804 -1.46875,-23 -0.23309,-0.46617 -0.13731,-1.30068 0,-2.1875 0.70191,-1.69362 0.90838,-3.21662 0,-4.125 -0.0319,-0.0319 -0.10516,-0.0593 -0.21875,-0.0625 z m 16.71875,44.1875 c 0.33237,0.006 0.66701,0.0308 1,0.0625 8.18209,0.19252 11.4837,8.7209 10.5625,15.75 1.4779,7.69197 0.217,15.53207 -4.40625,21.9375 -2.63454,7.86003 -12.94256,9.53136 -17.3125,2.1875 -4.23506,-6.3757 -5.45013,-14.67698 -4.5,-22.1875 2.81803,-5.12475 -0.4305,-16.26192 7.96875,-16.15625 2.07841,-1.06299 4.36094,-1.63738 6.6875,-1.59375 z"
         style="fill:#ffb900;fill-opacity:1;stroke:#ffffff;stroke-width:1px;stroke-linecap:butt;stroke-linejoin:miter;stroke-opacity:0" />
    </g>
    <g
       id="g7417"
       transform="matrix(0.50275249,0,0,0.50275249,365.05618,237.81491)"
       style="fill:#0075ed;fill-opacity:1">
      <path
         sodipodi:nodetypes="cssssccsssscc"
         inkscape:connector-curvature="0"
         id="path7233"
         d="m -392.49971,267.24348 c -5.44823,4.95447 -10.91289,9.75664 -15.71875,14.5625 -10.65306,10.65307 -23.8257,17.84792 -32.53125,30.90625 -1.66812,2.50216 -4.83189,3.99784 -6.5,6.5 -8.65432,12.98147 -26.86904,22.80653 -37.40626,33.34375 -1.53976,1.53977 -5.75069,5.30993 -8.625,8.625 26.44565,1.77154 26.28874,1.61232 51.91425,1.9375 7.03924,-5.24538 15.50012,-17.28137 20.96876,-22.75 4.35523,-4.35523 16.17111,-11.24846 18.6875,-16.28125 1.14565,-2.2913 27.93679,-31.85902 29.28125,-32.53125 3.00205,-1.50103 6.49133,-4.05383 8.9375,-6.5 5.25757,-5.25758 9.58317,-10.69484 14.125,-15.625 -15.68676,-1.03569 -31.45919,-1.80803 -43.133,-2.1875 z"
         style="fill:#0075ed;fill-opacity:1;stroke:none" />
      <path
         id="path7378"
         d="m -313.46875,276.96875 c -3.0095,0.20663 -14.36525,1.5353 -11.1875,1.71875 l -1.3125,0 c -2.80361,-0.50328 -13.63794,4.86962 -17.25,12.09375 -0.79859,1.59716 -2.34968,10.97469 -2.875,11.5 -1.20389,1.20389 -1.64618,5.36389 -0.59375,7.46875 1.19361,2.38721 -0.63225,6.17299 0.59375,8.625 1.04868,2.09736 0.41222,8.91819 2.28125,12.65625 1.31839,2.63676 1.64362,7.36237 3.46875,9.1875 2.07186,2.07185 4.91375,5.5075 7.46875,8.0625 1.16336,1.16337 4.09147,1.21647 5.15625,2.28125 0.96719,0.96719 16.4903,6.54095 18.40625,4.625 1.03694,-1.03694 4.20961,-2.10481 5.75,-2.875 4.1268,-2.0634 8.57452,-7.44952 11.5,-10.375 3.70228,-3.70228 4.3109,-11.0544 5.65625,-16.4375 -4.28571,-0.0842 -12.41944,-0.34163 -17.6875,-0.0312 -0.81315,2.32172 -1.94017,4.55048 -3.4375,6.625 -2.63454,7.86003 -12.94256,9.53136 -17.3125,2.1875 -4.23506,-6.3757 -5.45013,-14.67698 -4.5,-22.1875 2.81803,-5.12475 -0.4305,-16.26192 7.96875,-16.15625 2.07841,-1.06299 4.36094,-1.63738 6.6875,-1.59375 0.33237,0.006 0.66701,0.0308 1,0.0625 6.53229,0.1537 9.94829,5.631 10.59375,11.40625 6.47758,-0.24812 13.65387,-0.23173 15.59375,0.15625 1.12735,0.22547 2.16282,0.36908 3.15625,0.46875 -0.0164,-0.29065 -0.0791,-0.54788 -0.25,-0.71875 -1.25691,-1.25691 -0.21956,-3.93912 -1.125,-5.75 -1.42238,-2.84476 -2.60535,-5.77319 -4.03125,-8.625 -3.01279,-6.02558 -9.50408,-9.92391 -14.96875,-12.65625 -2.23492,-1.11746 -6.52799,-0.21549 -8.03125,-1.71875 -0.0222,-0.0222 -0.28882,-0.0295 -0.71875,0 z"
         style="fill:#0075ed;fill-opacity:1;stroke:#ffffff;stroke-width:1px;stroke-linecap:butt;stroke-linejoin:miter;stroke-opacity:0"
         inkscape:connector-curvature="0" />
    </g>
    <path
       inkscape:connector-curvature="0"
       id="path7421"
       d="m 401.91517,450.04841 c -2.54375,2.75506 -5.03305,5.00558 -7.12697,6.82368 -0.021,-1.65553 -0.064,-3.1865 -0.12635,-4.52385 -3.94442,0.15348 -8.20124,0.65342 -12.05517,1.46583 -0.31306,3.42176 -0.5641,7.56153 -0.75819,12.00462 -0.13491,0.41288 -0.25273,0.79798 -0.25273,1.08673 0,5.80192 -0.32855,11.28257 -0.32855,17.08448 0,4.78568 -0.65709,10.11981 -0.65709,14.48136 0,4.40664 -1.01686,9.60077 -0.32856,13.799 2.63316,-0.46389 4.81587,0.38809 7.55661,0.65711 3.02457,0.29685 4.86154,0 5.25676,0 0.41233,0 0.32854,-5.37621 0.32854,-7.88515 0,-2.15809 0.14488,-5.44769 0.30327,-8.74441 2.40452,2.09186 5.88448,4.95208 9.50261,8.87076 3.27983,-3.54981 2.95282,-4.19948 10.31135,-11.44861 -0.003,-0.30167 0.0269,-0.56823 0.0758,-0.7582 1.61362,0.57948 4.30076,1.09351 6.01495,0.60656 0.50349,0.0401 0.99894,0.0759 1.44055,0.0759 0.0923,0 0.2266,0.10789 0.30328,0.20218 -0.0508,-0.18517 -0.2109,-1.40175 -0.35382,-2.62838 0.002,-1.71683 -0.2908,-4.10069 -0.278,-4.80186 0.1771,-9.69845 0.63091,-23.99428 0,-29.08909 -2.16147,0.70542 -4.72059,0.48209 -6.92478,0.15164 -2.43565,-0.34644 -3.76797,-0.0901 -5.56003,-0.0253 -3.3969,-3.62473 -3.81989,-4.67359 -6.34349,-7.40496 z m 1.18781,15.59338 c 1.03155,0.003 1.81936,0.11211 2.07238,0.40436 0.49355,0.14044 0.9407,0.30326 1.08674,0.30326 0.39253,0 0.76487,-0.0102 1.13727,-0.0253 -0.16666,9.45598 -0.40819,20.32001 -0.80872,22.66978 -0.25337,1.48643 -10.49825,-0.30106 -10.99371,-0.65709 -1.03129,-0.74103 -0.88125,-11.32461 -0.80874,-21.60832 1.44748,-0.37369 5.68659,-1.09504 8.31478,-1.08673 z"
       style="fill:#af00af;fill-opacity:1;stroke:#ffffff;stroke-width:0.80873239px;stroke-linecap:butt;stroke-linejoin:miter;stroke-opacity:0" />
    <path
       style="fill:#af00af;fill-opacity:1;stroke:#ffffff;stroke-width:0.80873239px;stroke-linecap:butt;stroke-linejoin:miter;stroke-opacity:0"
       d="m 425.98955,444.96726 c 2.97009,-1.83792 4.1243,-3.67697 6.57665,-3.94597 3.02098,-0.3314 4.8661,0 5.26131,0 0.41234,0 0.32884,5.38301 0.32884,7.89197 0,4.47454 0.65766,13.73397 0.65766,18.08579 0,4.36429 0,20.32411 0,24.66243 0,0.78615 0.5003,4.43219 0,4.93249 -3.11015,0.253 -8.63519,0.49822 -12.82446,0.32883 -0.36576,-0.36577 -0.26147,-5.98292 -0.32884,-6.24782 -0.44343,-1.74379 0,-3.92609 0,-5.91899 0,-5.80191 0.32884,-8.99554 0.32884,-14.79746 0,-4.78567 -0.65766,-10.10706 -0.65766,-14.46862 0,-4.40663 -0.0308,-6.32441 0.65766,-10.52265 z"
       id="path7423"
       inkscape:connector-curvature="0"
       sodipodi:nodetypes="csssssccssssc" />
    <path
       inkscape:connector-curvature="0"
       id="path7425"
       d="m 465.04684,451.03489 c -2.22059,2.40507 -4.38216,4.40673 -6.29295,6.09078 -0.34126,0.63936 -0.76359,1.45136 -0.85928,1.64273 -0.56082,1.12162 -4.38344,-0.61356 -5.61058,0 -0.31331,0.15662 -4.00186,0.30053 -6.87422,0.35384 -0.16225,2.39346 -0.31106,4.96849 -0.42965,7.68294 -0.13491,0.41287 -0.25272,0.79799 -0.25272,1.08674 0,5.80189 -0.32856,11.28257 -0.32856,17.08447 0,3.23184 -0.28558,6.69388 -0.48019,9.95751 0.27384,0.0102 0.61059,0.0253 0.80875,0.0253 1.99906,0 9.82306,-0.71574 9.88169,-0.65711 0.85409,0.85408 1.57956,1.85655 2.24929,2.9822 2.40452,2.09188 5.88448,4.9521 9.5026,8.87079 3.27983,-3.54983 2.95282,-4.19949 10.31135,-11.44862 -0.003,-0.30168 0.027,-0.56824 0.0759,-0.75819 1.61362,0.57947 4.30076,1.0935 6.01495,0.60655 0.50348,0.0401 0.99894,0.0759 1.44056,0.0759 0.0923,0 0.22659,0.1079 0.30328,0.20219 -0.0508,-0.18518 -0.21091,-1.40176 -0.35383,-2.62838 0.002,-1.71684 -0.2908,-4.10071 -0.27799,-4.80186 0.002,-0.093 -0.002,-0.20951 0,-0.30327 -5.08613,0.0396 -10.45973,0.0931 -13.9001,0.0506 -0.0721,1.28389 -0.16235,2.30043 -0.25274,2.83056 -0.25336,1.48644 -10.49823,-0.30107 -10.99369,-0.6571 -0.53493,-0.38436 -0.7338,-3.44306 -0.80873,-7.70822 3.83558,0.0884 8.60258,-0.21401 12.28261,-0.37909 -0.003,0.0677 0.003,0.1096 0,0.17691 4.41159,-0.14182 9.78686,-0.81481 13.799,-1.01091 0.18137,-8.61099 0.36498,-18.1209 -0.12635,-22.08851 -2.16149,0.70542 -4.7206,0.48209 -6.92478,0.15163 -2.43567,-0.34645 -3.76796,-0.0902 -5.56003,-0.0253 -3.3969,-3.62475 -3.81989,-4.67361 -6.3435,-7.40496 z m 1.18783,15.59339 c 1.03153,0.003 1.81934,0.11211 2.07238,0.40435 0.49353,0.14046 0.94068,0.30329 1.08672,0.30329 0.39254,0 0.76488,-0.0102 1.13729,-0.0253 -0.0366,2.07363 -0.0818,4.2138 -0.12637,6.31822 -4.05177,0.122 -8.95613,0.27698 -12.53535,0.32855 0.0103,-2.04738 0.0357,-4.13269 0.0506,-6.2424 1.44747,-0.37368 5.68658,-1.09505 8.31479,-1.08674 z"
       style="fill:#af00af;fill-opacity:1;stroke:#ffffff;stroke-width:0.80873239px;stroke-linecap:butt;stroke-linejoin:miter;stroke-opacity:0" />
    <path
       sodipodi:nodetypes="cccccccccccccccccccccccccccccccccc"
       inkscape:connector-curvature="0"
       id="path7427"
       d="m 517.42628,458.05855 c 0.0873,1.37188 0.41961,2.86936 0.28997,4.63299 1.09123,2.28375 -1.4002,3.53299 -2.87033,4.74059 -1.35618,1.41186 -1.53199,2.00831 -3.11602,3.07949 -2.09507,-1.23937 -4.44217,-4.9918 -6.13975,-6.7044 -0.21393,-1.10768 0.0293,-2.99831 -0.33267,-5.06473 -0.98668,-0.20582 -4.19803,0.0514 -6.45277,-0.089 -3.00721,0.45955 -5.41544,0.23273 -8.36894,0.57309 0.1567,1.58611 -0.0607,5.6946 0.33512,7.45515 1.54895,0.54739 5.07345,-0.47271 6.39142,0.66078 3.17299,3.08825 6.11708,6.67295 8.24526,8.92888 -0.82313,1.7491 -2.86145,2.95003 -4.17011,4.64178 -1.91571,2.1143 -3.54765,2.45089 -5.39011,4.62028 -1.34598,-0.11818 -3.20225,0.25676 -5.15276,0.36324 0.3199,1.91837 0.61246,6.54757 0.029,8.12593 2.2342,-0.10345 4.91534,0.50134 6.20227,0.74612 2.18697,0.1586 1.14497,0.38197 3.48165,-0.009 2.06943,-0.65819 4.49276,-0.28074 6.57484,-0.62589 0.0877,-1.85619 0.0525,-5.08362 0.0929,-6.82343 2.41645,-1.94186 4.1186,-4.92696 6.68659,-6.67826 2.38525,2.93859 5.55356,5.99764 8.05698,8.82028 -0.45023,1.57102 -1.24174,4.20035 -0.69916,5.10189 1.19515,-0.87434 1.66201,0.40433 3.41637,0.0102 1.1382,-0.1686 3.19763,-0.2575 4.29839,-0.16369 1.00662,0.38879 5.29863,0.88338 7.17174,0.47768 -0.68368,-1.92362 -0.64629,-4.97185 -0.64608,-7.59452 -1.49409,-0.70628 -1.89388,-1.04585 -3.16789,-0.63018 -1.85665,-1.84312 -3.99502,-3.66794 -5.45032,-5.87256 -2.38836,-1.81857 -5.43732,-3.92175 -7.19241,-6.80088 0.99286,-1.53188 2.88002,-2.39841 4.17493,-3.73659 2.24465,-1.7952 4.52387,-3.55438 6.7012,-5.42755 1.37234,-0.4171 2.14585,-0.30339 4.20061,-0.30121 0.3354,-2.30343 0.55599,-5.60843 0.37447,-6.99362 -1.85443,-0.31024 -14.79463,0.11707 -17.57442,0.53709 z"
       style="fill:#af00af;fill-opacity:1;stroke:#ffffff;stroke-width:0.80873239px;stroke-linecap:butt;stroke-linejoin:miter;stroke-opacity:0" />
    <path
       style="fill:#af00af;fill-opacity:1;stroke:#ffffff;stroke-width:0.80873239px;stroke-linecap:butt;stroke-linejoin:miter;stroke-opacity:0"
       d="m 223.81613,501.26664 c 2.54375,-2.75506 5.03305,-5.00558 7.12697,-6.82368 0.021,1.65554 0.064,3.18651 0.12635,4.52385 3.94442,-0.15348 8.20124,-0.65342 12.05517,-1.46583 0.31306,-3.42175 0.5641,-7.56153 0.75819,-12.00462 0.13491,-0.41288 0.25273,-0.79798 0.25273,-1.08673 0,-5.80191 0.32855,-11.28257 0.32855,-17.08448 0,-4.78567 0.65709,-10.11981 0.65709,-14.48136 0,-4.40664 1.01685,-9.60077 0.32855,-13.799 -2.63315,0.46389 -4.81586,-0.38808 -7.5566,-0.65711 -3.02457,-0.29685 -4.86154,0 -5.25676,0 -0.41233,0 -0.32854,5.37621 -0.32854,7.88515 0,2.15809 -0.14488,5.44769 -0.30327,8.74442 -2.40452,-2.09187 -5.88448,-4.95209 -9.50262,-8.87077 -3.27982,3.54981 -2.95281,4.19948 -10.31134,11.44861 0.003,0.30167 -0.0269,0.56824 -0.0758,0.7582 -1.61362,-0.57948 -4.30076,-1.09351 -6.01495,-0.60655 -0.50349,-0.0401 -0.99894,-0.0759 -1.44055,-0.0759 -0.0923,0 -0.2266,-0.1079 -0.30329,-0.20219 0.0508,0.18518 0.21091,1.40175 0.35383,2.62838 -0.002,1.71683 0.2908,4.10069 0.278,4.80186 -0.1771,9.69845 -0.63091,23.99429 0,29.08909 2.16147,-0.70542 4.72059,-0.48209 6.92478,-0.15164 2.43565,0.34644 3.76797,0.0901 5.56003,0.0253 3.39689,3.62473 3.81989,4.67359 6.34349,7.40496 z m -1.18781,-15.59338 c -1.03155,-0.003 -1.81936,-0.11211 -2.07239,-0.40436 -0.49354,-0.14044 -0.94069,-0.30326 -1.08674,-0.30326 -0.39252,0 -0.76486,0.0102 -1.13726,0.0253 0.16666,-9.45598 0.40819,-20.32001 0.80872,-22.66978 0.25337,-1.48643 10.49824,0.30106 10.99371,0.65709 1.03129,0.74103 0.88125,11.32461 0.80874,21.60832 -1.44748,0.37369 -5.68659,1.09504 -8.31478,1.08673 z"
       id="path7429"
       inkscape:connector-curvature="0" />
    <path
       style="fill:#af00af;fill-opacity:1;stroke:#ffffff;stroke-width:0.80873239px;stroke-linecap:butt;stroke-linejoin:miter;stroke-opacity:0"
       d="m 269.18935,505.30804 c 2.22059,-2.40506 4.38215,-4.40673 6.29294,-6.09078 0.34126,-0.63936 0.76359,-1.45136 0.85928,-1.64273 0.56082,-1.12162 4.38345,0.61356 5.61059,0 0.31331,-0.15662 4.00185,-0.30053 6.87421,-0.35384 0.16226,-2.39346 0.31107,-4.96849 0.42965,-7.68294 0.13491,-0.41287 0.25272,-0.79799 0.25272,-1.08674 0,-5.80189 0.32856,-11.28257 0.32856,-17.08447 0,-3.23184 0.28558,-6.69388 0.48019,-9.95751 -0.27384,-0.0102 -0.61059,-0.0253 -0.80875,-0.0253 -1.99906,0 -9.82306,0.71574 -9.88169,0.65711 -0.85408,-0.85408 -1.57956,-1.85655 -2.24929,-2.9822 -2.40451,-2.09188 -5.88448,-4.9521 -9.5026,-8.87079 -3.27983,3.54983 -2.95282,4.19949 -10.31134,11.44862 0.003,0.30168 -0.027,0.56824 -0.0759,0.75819 -1.61362,-0.57947 -4.30076,-1.0935 -6.01495,-0.60655 -0.50349,-0.0401 -0.99894,-0.0759 -1.44057,-0.0759 -0.0923,0 -0.22659,-0.1079 -0.30328,-0.20219 0.0508,0.18518 0.21092,1.40176 0.35384,2.62839 -0.002,1.71683 0.29079,4.1007 0.27799,4.80185 -0.002,0.093 0.002,0.20951 0,0.30327 5.08613,-0.0396 10.45973,-0.0931 13.90009,-0.0506 0.0721,-1.28389 0.16236,-2.30043 0.25274,-2.83056 0.25337,-1.48644 10.49823,0.30107 10.9937,0.6571 0.53493,0.38436 0.73379,3.44306 0.80872,7.70822 -3.83557,-0.0884 -8.60257,0.21401 -12.28261,0.37909 0.003,-0.0677 -0.003,-0.1096 0,-0.17691 -4.41158,0.14182 -9.78686,0.81481 -13.799,1.01091 -0.18137,8.61099 -0.36497,18.1209 0.12636,22.08851 2.16148,-0.70542 4.72059,-0.48209 6.92478,-0.15163 2.43566,0.34645 3.76795,0.0902 5.56003,0.0253 3.39689,3.62475 3.81989,4.67361 6.3435,7.40497 z m -1.18784,-15.59339 c -1.03153,-0.003 -1.81934,-0.11211 -2.07237,-0.40435 -0.49353,-0.14046 -0.94069,-0.30329 -1.08673,-0.30329 -0.39254,0 -0.76488,0.0103 -1.13728,0.0253 0.0366,-2.07363 0.0818,-4.2138 0.12636,-6.31822 4.05177,-0.122 8.95613,-0.27697 12.53535,-0.32855 -0.0102,2.04739 -0.0357,4.13269 -0.0506,6.2424 -1.44748,0.37369 -5.68659,1.09505 -8.31479,1.08674 z"
       id="path7431"
       inkscape:connector-curvature="0" />
    <path
       inkscape:connector-curvature="0"
       id="path7433"
       d="m 310.78501,452.77469 c -3.63674,0.1415 -7.56148,0.60245 -11.11481,1.35149 -0.15359,1.67881 -0.29493,3.84931 -0.41941,6.19819 -1.18468,-4.3e-4 -2.35464,-0.024 -3.51855,-0.1165 -0.65805,-0.32903 -1.60018,-1.12609 -2.12043,-0.60583 -0.31676,0.31674 0.60584,6.03424 0.60584,6.99044 0,0.36416 0.15941,1.1958 0,1.5146 -0.0394,0.0789 -0.53992,0.36884 -0.30291,0.60584 0.29305,0.29307 2.28766,0.33916 4.98652,0.30292 -0.31668,10.26527 -0.3962,22.28242 -0.11651,29.96573 6.03751,-0.32498 5.48611,-0.6109 8.97108,-0.44273 1.72153,1.92164 6.23775,5.12575 10.92841,10.20606 3.1668,-3.42751 2.66967,-3.90357 10.50897,-11.53425 0.18489,-1.29186 2.86864,-2.79362 2.30684,-3.35541 -0.66048,-0.66049 -6.94041,-0.21121 -9.71672,-0.07 -2.29767,-0.37013 -7.64213,-0.11637 -10.13615,-0.55925 -0.93863,-0.67444 -0.8131,-13.18279 -0.74565,-24.69959 4.13538,-0.2245 7.90087,-0.41942 9.08759,-0.41942 0.86497,0 5.26666,1.09466 6.05839,0.30293 0.89455,-0.89457 -0.30292,-6.278 -0.30292,-7.59631 0,-0.31037 0.69729,-1.42312 0.30292,-1.81751 -0.25413,-0.25413 -4.11924,0.39357 -4.5438,0.60583 -1.35049,0.67526 -4.84118,0 -6.38462,0 -1.39439,0 -2.7992,0.0621 -4.21756,0.13982 -0.0102,-2.70709 -0.0336,-5.18721 -0.11652,-6.96715 z"
       style="fill:#af00af;fill-opacity:1;stroke:#ffffff;stroke-width:0.74564809px;stroke-linecap:butt;stroke-linejoin:miter;stroke-opacity:0" />
    <path
       inkscape:connector-curvature="0"
       id="path7435"
       d="m 353.03934,505.30804 c 2.22059,-2.40506 4.38215,-4.40673 6.29295,-6.09078 0.34125,-0.63936 0.76358,-1.45136 0.85928,-1.64273 0.56082,-1.12162 4.38344,0.61356 5.61058,0 0.31331,-0.15662 4.00185,-0.30053 6.87422,-0.35384 0.16225,-2.39346 0.31106,-4.96849 0.42964,-7.68294 0.13491,-0.41287 0.25272,-0.79799 0.25272,-1.08674 0,-5.80189 0.32857,-11.28257 0.32857,-17.08447 0,-3.23184 0.28557,-6.69388 0.48018,-9.95751 -0.27384,-0.0102 -0.61058,-0.0253 -0.80875,-0.0253 -1.99906,0 -9.82305,0.71574 -9.88168,0.65711 -0.85409,-0.85408 -1.57957,-1.85655 -2.2493,-2.9822 -2.40451,-2.09188 -5.88448,-4.9521 -9.5026,-8.87079 -3.27983,3.54983 -2.95281,4.19949 -10.31134,11.44862 0.003,0.30168 -0.027,0.56824 -0.0759,0.75819 -1.61362,-0.57947 -4.30076,-1.0935 -6.01495,-0.60655 -0.50349,-0.0401 -0.99894,-0.0759 -1.44056,-0.0759 -0.0923,0 -0.22659,-0.1079 -0.30328,-0.20219 0.0508,0.18518 0.21091,1.40176 0.35383,2.62839 -0.002,1.71683 0.2908,4.1007 0.27799,4.80185 -0.002,0.093 0.002,0.20951 0,0.30327 5.08613,-0.0396 10.45973,-0.0931 13.90009,-0.0506 0.0721,-1.28389 0.16236,-2.30043 0.25274,-2.83056 0.25337,-1.48644 10.49823,0.30107 10.9937,0.6571 0.53493,0.38436 0.73379,3.44306 0.80873,7.70822 -3.83558,-0.0884 -8.60258,0.21401 -12.28262,0.37909 0.003,-0.0677 -0.003,-0.1096 0,-0.17691 -4.41158,0.14182 -9.78685,0.81481 -13.79899,1.01091 -0.18138,8.61099 -0.36498,18.1209 0.12635,22.08851 2.16148,-0.70542 4.7206,-0.48209 6.92478,-0.15163 2.43567,0.34645 3.76796,0.0902 5.56003,0.0253 3.3969,3.62475 3.81989,4.67361 6.3435,7.40497 z m -1.18784,-15.59339 c -1.03152,-0.003 -1.81933,-0.11211 -2.07237,-0.40435 -0.49353,-0.14046 -0.94069,-0.30329 -1.08673,-0.30329 -0.39254,0 -0.76487,0.0103 -1.13728,0.0253 0.0366,-2.07363 0.0818,-4.2138 0.12636,-6.31822 4.05177,-0.122 8.95613,-0.27697 12.53536,-0.32855 -0.0103,2.04739 -0.0357,4.13269 -0.0506,6.2424 -1.44748,0.37369 -5.68659,1.09505 -8.31479,1.08674 z"
       style="fill:#af00af;fill-opacity:1;stroke:#ffffff;stroke-width:0.80873239px;stroke-linecap:butt;stroke-linejoin:miter;stroke-opacity:0" />
    <path
       style="fill:#af00af;fill-opacity:1;stroke:#ffffff;stroke-width:0.89246047px;stroke-linecap:butt;stroke-linejoin:miter;stroke-opacity:0"
       d="m 68.15625,80 c -0.565324,0.0011 -0.9375,0.232452 -0.9375,0.8125 -1.112835,0.0436 -2.164914,0.14246 -3,0.25 -6.889777,-0.43833 -16.158829,0.89911 -22.375,1.40625 0.269572,22.6056 2.426737,166.87069 3.46875,203.6875 -0.781906,1.02705 -1.471874,2.09392 -2.125,3.125 -2.731936,4.31286 -25.439657,25.17873 -23.53125,27 5.993256,5.0819 17.747453,15.68471 27.1875,20.71875 1.379812,44.11295 3.749912,124.59403 4.78125,151.15625 7.980205,1.80462 14.05073,0.82158 21.28125,0.84375 0.04241,10e-6 0.08249,0 0.125,0 14.956946,0.83047 119.12933,1.44791 119.4375,1.125 3.167,-3.31851 2.0233,-12.05834 1.875,-18.40625 -0.0483,-2.06968 1.04325,-12.48884 -0.34375,-13.8125 -0.24746,-0.23615 -97.723541,1.55211 -100.84375,1.625 -1.928664,0.0451 -8.758529,-0.55356 -16.25,-1.03125 0.347798,-19.79431 -0.654392,-79.04185 -3.1875,-98.4375 -0.282945,-10.68983 1.801438,-16.22189 1.6875,-27.8125 -1.028946,-0.94737 -1.96553,-1.9804 -2.6875,-3.34375 C 71.348566,326.3188 57.06654,312.85754 57.5,311.9375 c 2.166224,-4.59789 9.989005,-15.55037 16.625,-19.6875 -0.0181,-25.31292 -2.292094,-155.68954 -2,-180.09375 101.74686,1.54457 203.47177,1.10208 304.93609,0.2184 84.83325,-1.1306 173.64557,2.89867 258.78266,-0.62465 0.63692,24.39764 0.7229,161.0331 1.0625,186.34375 6.6938,4.04294 13.08398,10.37342 15.6875,13.71875 -0.36678,1.72702 -11.19052,12.98388 -13.59375,14.65625 -3.14225,2.18663 -2.45329,2.19444 -3.46875,3.15625 0.0499,11.59106 1.66311,19.83848 1.53125,30.53125 -2.25877,19.4295 -2.47122,78.68134 -1.84375,98.46875 -7.48397,0.5835 -14.28964,1.2678 -16.21875,1.25 -3.12093,-0.0288 -75.41216,-1.58338 -75.65625,-1.34375 -1.36816,1.34312 -0.1059,11.74236 -0.125,13.8125 0,0 -1.90108,15.13282 1.3125,18.40625 0.31269,0.31852 80.05628,-0.64575 95,-1.6875 0.0425,-10e-4 0.0826,6.1e-4 0.125,0 7.22949,-0.12435 13.32735,0.79221 21.28125,-1.125 0.65589,-26.57414 1.86869,-107.09071 2.625,-151.21875 9.36797,-5.16693 21.01665,-15.92767 26.9375,-21.09375 1.88248,-1.84805 -21.11364,-22.38242 -23.90625,-26.65625 -0.66763,-1.02175 -1.42241,-2.07785 -2.21875,-3.09375 0.52164,-36.82785 1.39365,-181.64284 1.34375,-204.25 -6.22272,-0.41925 -15.49211,-1.62939 -22.375,-1.09375 -0.83652,-0.09572 -1.88666,-0.19085 -3,-0.21875 0,1.856152 -3.87307,0.10875 -5.3125,0.75 -7.57014,0.58685 -236.4896,1.29925 -238.4375,1.28125 C 379.78398,81.002724 345.89702,80.969102 323.21981,80.969102 246.27698,82.280661 166.54081,81.580249 89,82.5 87.052552,82.5455 80.108933,81.94856 72.53125,81.46875 71.535513,81.041916 69.399963,79.997518 68.15625,80 z"
       id="path7548"
       inkscape:connector-curvature="0"
       sodipodi:nodetypes="sccccscccccsccccccssccccccscccsccscccccscccccccccs" />
  </g>
</svg>
